<?xml version="1.0" encoding="utf-8"?>
<!-- Generator: Adobe Illustrator 26.1.0, SVG Export Plug-In . SVG Version: 6.00 Build 0)  -->
<svg version="1.1" id="Layer_1" xmlns="http://www.w3.org/2000/svg" xmlns:xlink="http://www.w3.org/1999/xlink" x="0px" y="0px"
	 viewBox="0 0 100 100" style="enable-background:new 0 0 100 100;" xml:space="preserve">
<path d="M71.2,40c-0.5,0-1,0-1-0.5s0-1,1-1c0.5,0,1,0.5,1,1C72.1,39.5,71.7,40,71.2,40 M69.7,48.8c-0.5,0-1-0.5-1-1s0-0.5,0.5-0.5
	s1,0,1,1C70.7,48.3,70.2,48.3,69.7,48.8 M68.7,54.1c-0.5,0-1,0-1-1c0-0.5,0.5-1,1-1s1,0.5,1.5,1C70.2,54.1,69.2,54.1,68.7,54.1
	 M68.2,57.5c0.5,0,1,0.5,1,1S68.7,59,68.7,59c-0.5,0-1-0.5-1-1C67.8,58,67.8,57.5,68.2,57.5 M68.2,64.9c-1,0-1-1-1-1.5
	s0.5-0.5,0.5-0.5c1,0,1.5,0.5,1.5,1.5C69.2,64.4,68.7,64.9,68.2,64.9 M63.4,57.5c-0.5,0-1-0.5-1-1c-0.5-0.5,0-0.5,0-0.5
	c1,0,1,0.5,1,1C63.9,57.1,63.9,57.5,63.4,57.5 M62.9,62.4c-1,0-1.5-0.5-1.5-1s0.5-1,1-1s1,0,1,1C63.9,62.4,63.4,62.4,62.9,62.4
	 M61.9,50.2c0.5,0,1,0.5,1,1s0,1-0.5,0.5c-0.5,0-1-0.5-1-1L61.9,50.2 M42.9,21c-0.5,0-1-0.5-1-1s0.5-0.5,1-0.5s1,0,1,0.5
	C43.9,21,42.9,21,42.9,21 M41,48.3c-0.5,0-1-0.5-1.5-1c0-0.5,0-1,0.5-1c1,0,1.5,0.5,1.5,1C41.9,48.3,41.4,48.3,41,48.3 M40,7.8
	c0-0.5,0.5-1,1-1s1,0,1,0.5s-1,0.5-1,0.5C40.5,8.3,40,8.3,40,7.8 M79.4,13.7c-2.9,1.9-5.8,1-8.8,1c-1.9-0.5-3.9-1-5.8-1
	c-1.5-0.5-3.9-1.9-4.9-3.9C56,8.3,52.1,7.4,48.2,5.9c-2.4,0-5.4,0-7.8-1.5C39,3.5,37.1,3,35.1,2c0,4.4,0.5,8.3,1.5,12.2
	c1,0,1.9,0,2.4,1.5c-1,0-1.5,0-1.9,0c0,1,0.5,1.9,0.5,2.9H38c0.5,0.5,1.5,0.5,1,1.5c-0.5,0.5-1,0-1.5,0c0,4.9,1.5,9.7,1,14.6
	c0,3.9-1.5,7.8-2.4,11.2c-1,2.4-1.9,5.4-3.4,7.8c-1.9,2.9-3.4,5.8-6.3,8.3c-2.9,2.4-6.3,5.4-8.3,8.8c-1,1.9-1.9,4.4-1.5,6.8
	c1,3.4,3.4,4.9,6.8,5.4c3.9,0.5,7.3-0.5,11.2-1.9c3.4-1.5,6.3-3.9,7.3-7.8c1.5-4.9,3.4-8.8,6.8-12.2c0.5-0.5,1-1,1.9-1
	c1,0,1.9-0.5,2.9-1c0.5-0.5,1-1,1.9-1.5c0,1.5,0.5,2.9,0.5,4.4c0.5,4.9-1,10.2-1.5,15.1c-0.5,4.4-1.5,9.3-0.5,13.6
	C55.4,99,62.2,100.9,69,99c3.4-1,5.4-4.4,6.3-7.8c1.5-3.9,0.5-8.3,0-12.2c0-2.4-1-4.4-1-6.8c-0.5-5.4-0.5-11.2-0.5-16.6
	c0-3.9,0-7.8-0.5-11.7c-0.5-2.4-0.5-4.4,0-6.8c1-4.9,2.4-9.7,3.4-14.6C79,19.1,79.9,16.6,79.4,13.7C79.9,13.7,79.9,13.7,79.4,13.7"
	/>
</svg>
