<?xml version="1.0" encoding="utf-8"?>
<!-- Generator: Adobe Illustrator 26.1.0, SVG Export Plug-In . SVG Version: 6.00 Build 0)  -->
<svg version="1.1" id="Layer_1" xmlns="http://www.w3.org/2000/svg" xmlns:xlink="http://www.w3.org/1999/xlink" x="0px" y="0px"
	 viewBox="0 0 100 100" style="enable-background:new 0 0 100 100;" xml:space="preserve">
<style type="text/css">
	.st0{fill:#FF0000;}
</style>
<g>
	<g>
		<g>
			<g>
				<path d="M31,31.6c0,0,37.4-9.8,43.1,4l1.7,54c0,0,0.6,1.1-1.1,0.6S31,91.4,31,91.4V31.6z"/>
			</g>
			<g>
				<path class="st0" d="M42.5,1.1c-6.9,0-12.1,5.2-12.1,12.1v78.7h29.3V13.2c0-6.9-5.2-12.1-12.1-12.1C47.6,1.1,42.5,1.1,42.5,1.1z
					"/>
			</g>
			<g>
				<path d="M30.5,90.2c0,0,24.1-10.3,42.5-1.1c0,0-1.1,5.2-6.9,5.2s-32.2,1.1-40.2,5.2C18.4,102.9,30.5,90.2,30.5,90.2"/>
			</g>
		</g>
	</g>
</g>
</svg>
