<?xml version="1.0" encoding="utf-8"?>
<!-- Generator: Adobe Illustrator 26.1.0, SVG Export Plug-In . SVG Version: 6.00 Build 0)  -->
<svg version="1.1" id="Layer_1" xmlns="http://www.w3.org/2000/svg" xmlns:xlink="http://www.w3.org/1999/xlink" x="0px" y="0px"
	 viewBox="0 0 294.8 65.2" style="enable-background:new 0 0 294.8 65.2;" xml:space="preserve">
<style type="text/css">
	.st0{fill:#FFFFFF;}
	.st1{fill:#FF0000;}
	.st2{fill:#CC9900;}
	.st3{fill:#FFFFFF;stroke:#FFFFFF;stroke-width:0.75;stroke-miterlimit:10;}
</style>
<g>
	<path class="st0" d="M286.3-104v3.9c-1,0.7-2.2,1.4-3.7,1.9c-1.4,0.5-2.8,0.8-4.2,0.8c-2.9,0-5.2-0.9-6.9-2.8
		c-1.8-1.8-2.6-4.6-2.6-8.3c0-3.4,0.9-6,2.6-7.7c1.7-1.7,4.1-2.6,7-2.6c1.9,0,3.6,0.4,4.9,1.3c1.3,0.9,2.2,2.1,2.7,3.6l6.7-1.2
		c-0.7-2.8-2.2-5.1-4.5-6.7s-5.6-2.4-9.7-2.4c-3.2,0-5.9,0.5-8,1.5c-2.8,1.3-4.9,3.3-6.4,5.8s-2.2,5.4-2.2,8.6c0,3,0.7,5.7,2,8.2
		s3.3,4.5,5.9,5.8c2.6,1.4,5.6,2,9.1,2c2.7,0,5.5-0.5,8.1-1.4c2.7-1,4.7-2.1,6.1-3.3v-12.2h-14.5v5.2H286.3z M237.6-92.6v-20.2
		L251-92.6h6.8v-30.9h-6.3v20.6l-13.6-20.6h-6.6v30.9H237.6z M226.7-123.5H220v30.9h6.7V-123.5z M195.1-92.6v-13.5h13.2v13.5h6.7
		v-30.9h-6.7v12.2h-13.2v-12.2h-6.7v30.9H195.1z M175.1-99c-1.3,1.1-2.8,1.6-4.6,1.6c-2.4,0-4.4-0.8-5.9-2.5
		c-1.5-1.7-2.3-4.4-2.3-8.4c0-3.7,0.8-6.3,2.3-8c1.5-1.6,3.5-2.5,6-2.5c1.8,0,3.3,0.5,4.6,1.4s2.1,2.2,2.5,3.8l6.7-1.5
		c-0.8-2.5-1.9-4.4-3.4-5.7c-2.6-2.2-5.9-3.4-10-3.4c-4.7,0-8.5,1.4-11.3,4.3c-2.9,2.8-4.3,6.8-4.3,12c0,4.9,1.4,8.7,4.3,11.5
		c2.9,2.8,6.5,4.2,10.9,4.2c3.6,0,6.5-0.8,8.9-2.5c2.3-1.6,4-4.1,5-7.5l-6.5-1.9C177.3-101.7,176.4-100.1,175.1-99"/>
	<path class="st0" d="M131.5-118.3h5.3c2.7,0,4.4,0,4.9,0.1c1.1,0.2,1.9,0.6,2.5,1.2c0.6,0.6,0.9,1.5,0.9,2.5c0,0.9-0.2,1.7-0.7,2.3
		s-1.1,1.1-1.9,1.3c-0.8,0.3-2.8,0.4-6.1,0.4h-5v-7.8H131.5z M131.5-92.6v-12.9h1.4c1.5,0,2.7,0.1,3.4,0.3c0.7,0.2,1.4,0.7,2,1.3
		c0.6,0.6,1.8,2.1,3.6,4.5l4.9,6.7h8.1l-4.1-6c-1.6-2.4-2.9-4.1-3.8-5c-0.9-0.9-2.2-1.8-3.6-2.6c2.9-0.4,5.1-1.3,6.6-2.9
		c1.5-1.5,2.2-3.4,2.2-5.7c0-1.8-0.5-3.5-1.5-4.9s-2.3-2.4-3.9-3c-1.6-0.6-4.2-0.8-7.8-0.8h-14.2v30.9L131.5-92.6L131.5-92.6z
		 M101.5-104.9l4.5-11.4l4.6,11.5L101.5-104.9L101.5-104.9z M109.6-123.5h-7.1l-13,30.9h7.2l2.8-7h13.3l2.9,7h7.3L109.6-123.5z"/>
</g>
<polygon class="st0" points="62,-92.6 62,-117 68.6,-92.6 75.1,-92.6 81.8,-117 81.8,-92.6 88,-92.6 88,-123.5 77.9,-123.5 
	71.9,-102.5 65.9,-123.5 55.8,-123.5 55.8,-92.6 "/>
<g>
	<path class="st1" d="M27.9-122.5c-0.2,0-0.4,0.2-0.4,0.4c0,0.2,0.2,0.4,0.4,0.4c0.2,0,0.4-0.2,0.4-0.4
		C28.3-122.4,28.1-122.5,27.9-122.5 M23.3-122.1c0-0.2-0.1-0.4-0.4-0.4c-0.2,0-0.4,0.2-0.4,0.4c0,0.2,0.2,0.4,0.4,0.4
		C23.1-121.8,23.3-121.9,23.3-122.1 M18.2-97.5c0.1-0.2,0.2-0.4,0.3-0.7c0.4-0.9,0.7-1.8,0.8-2.8c0.1-0.6,0.1-1.2-0.1-1.9
		c-0.1-0.4-0.3-0.7-0.5-1c-0.1-0.2-0.2-0.2-0.4-0.1c0,0-0.1,0-0.1,0.1c-0.4,0.3-0.8,0.6-1.1,1c-0.7,0.9-1.1,1.9-1.2,3.1
		c-0.1,0.5-0.1,1-0.2,1.5c0,0.3,0,0.5,0,0.8c0,0.2,0.1,0.4,0.1,0.6c-0.1,0-0.1,0-0.2,0.1c-0.3,0.1-0.7,0.2-1,0.3
		c-0.1,0-0.1,0.1-0.2,0.1c-0.1,0.2-0.1,0.5-0.2,0.8c0.3-0.1,0.5-0.1,0.8-0.2c1.4-0.5,2.9-0.9,4.3-1.2c1.1-0.2,2.2-0.4,3.3-0.6
		c0.9-0.2,1.8-0.3,2.6-0.4c0.8-0.1,1.6-0.3,2.5-0.4c0.9-0.1,1.8-0.3,2.7-0.4c0.8-0.1,1.6-0.3,2.5-0.4c0.7-0.1,1.4-0.3,2.1-0.5
		c0.8-0.3,1.5-0.4,2.3-0.7c0.2-0.1,0.5-0.2,0.7-0.3c1.2-0.5,2.3-1.1,3.2-1.9c0.2-0.2,0.4-0.4,0.6-0.5c0.3-0.3,0.2-0.7-0.1-0.9
		c-0.1-0.1-0.2-0.1-0.3,0c-0.1,0.2-0.2,0.4-0.1,0.6c0,0.1,0.1,0.3,0.1,0.4c-0.1,0.1-0.2,0.2-0.4,0.3c-0.1-0.2-0.1-0.3-0.2-0.4
		c0-0.1-0.1-0.2-0.2-0.3c-0.1-0.1-0.2-0.1-0.3,0.1s-0.2,0.5-0.1,0.7c0,0.1,0.1,0.3,0.1,0.4c-0.1,0.1-0.3,0.2-0.4,0.3
		c-0.1-0.6-0.2-0.8-0.5-1c-0.2,0.1-0.4,0.3-0.4,0.5c-0.1,0.3,0,0.6,0.2,0.9c-0.2,0.1-0.4,0.2-0.7,0.3c0-0.2,0-0.3,0-0.5
		c0-0.3-0.1-0.5-0.4-0.7c-0.1-0.1-0.2-0.1-0.3,0c-0.1,0.3-0.3,0.5-0.4,0.8c-0.1,0.2,0,0.4,0.1,0.5l0.1,0.1c-0.3,0.1-0.7,0.3-0.9,0.3
		c0.3-0.3,0.3-0.6,0.3-0.9c0-0.2-0.1-0.3-0.2-0.5c-0.1-0.2-0.2-0.2-0.4-0.1l-0.1,0.1c-0.5,0.4-0.6,0.9-0.5,1.5c0,0.1,0,0.1,0,0.2
		c-0.3,0.1-0.5,0.1-0.8,0.2c0.2-0.7,0.4-1.3-0.1-1.9c-0.1,0-0.1,0.1-0.1,0.1c-0.4,0.3-0.6,0.8-0.8,1.3c-0.1,0.3-0.1,0.5-0.1,0.8
		c-0.2,0-0.4,0.1-0.6,0.1c0.1-0.3,0.1-0.6,0.2-0.9c0.1-0.3,0-0.7-0.1-1c-0.1-0.1-0.1-0.3-0.3-0.4c-0.7,0.7-1.2,1.5-1.2,2.6
		c-0.3,0-0.5,0.1-0.8,0.1c0-0.1,0.1-0.2,0.1-0.2c0.1-0.3,0.2-0.6,0.3-0.9c0.1-0.4,0.2-0.8,0.1-1.2c0-0.2-0.1-0.4-0.3-0.6
		c-0.1,0-0.1,0.1-0.2,0.1c-0.2,0.1-0.4,0.3-0.6,0.5c-0.4,0.5-0.7,1.1-0.8,1.7c0,0.2-0.1,0.4-0.1,0.7c-0.2,0-0.4,0-0.6,0.1
		c0,0,0,0,0-0.1c0-0.1,0-0.1,0.1-0.2c0.2-0.5,0.4-1.1,0.5-1.7c0-0.3,0.1-0.7,0-1c0-0.1-0.1-0.3-0.2-0.4c-0.1-0.2-0.1-0.2-0.3-0.1
		c0,0-0.1,0-0.1,0.1c-0.4,0.3-0.7,0.7-0.9,1.2c-0.3,0.7-0.5,1.4-0.5,2.2c0,0.1,0,0.1,0,0.2c-0.3,0-0.5,0.1-0.8,0.1
		c0-0.1,0.1-0.2,0.1-0.3c0.2-0.4,0.3-0.8,0.4-1.2c0.2-0.6,0.3-1.2,0.3-1.8c0-0.3-0.1-0.6-0.3-0.8c-0.1,0-0.1,0.1-0.2,0.1
		c-0.2,0.1-0.4,0.3-0.6,0.5c-0.8,0.9-1.1,2-1,3.2c0,0.1,0,0.3,0.1,0.5c-0.4,0-0.7,0.1-1.2,0.1c0.1-0.1,0.1-0.2,0.1-0.2
		c0.2-0.4,0.4-0.9,0.6-1.3c0.4-1.1,0.4-2.2-0.1-3.2c0-0.1-0.1-0.1-0.1-0.2c-0.4,0.2-0.7,0.4-0.9,0.7c-0.6,0.8-1,1.8-1.2,2.8
		c-0.1,0.5-0.2,1,0,1.6c-0.5,0.1-0.9,0.2-1.4,0.2c0.1-0.1,0.1-0.1,0.1-0.2c0.1-0.2,0.3-0.5,0.4-0.7c0.4-0.8,0.6-1.6,0.7-2.4
		c0.1-0.5,0.1-1.1,0-1.6c0-0.2-0.1-0.4-0.2-0.6s-0.2-0.2-0.4-0.1c-0.4,0.2-0.8,0.5-1.1,0.8c-0.5,0.5-0.8,1.1-1,1.8
		c-0.3,1-0.3,2-0.2,3c0,0.1,0,0.3,0,0.4C19.2-97.7,18.7-97.6,18.2-97.5 M26.3-124.1c0.3,0,0.5,0,0.8,0.1c0.6,0.1,1.2,0.3,1.7,0.7
		s0.8,0.8,1,1.4c1.3,3.7,2.6,7.5,3.8,11.2c0.9,2.6,1.8,5.2,2.7,7.8c0,0.1,0,0.1,0.1,0.2c0.3-0.1,0.6-0.1,0.9-0.2
		c2-0.4,3.8-1.3,5.4-2.6c0.3-0.2,0.5-0.4,0.8-0.7c0.1,0,0.1-0.1,0.2-0.1c0,0.1,0,0.1,0,0.1c0,0.6-0.1,1.2-0.1,1.8
		c0,0.3-0.1,0.5-0.2,0.7c-0.2,0.4-0.6,0.5-1.1,0.4c-0.1,0-0.1,0-0.2-0.1c-0.1,0-0.2,0-0.3,0.1c0.4,0.1,0.8,0.2,1.2,0.5
		c-0.2,0.3-0.5,0.4-0.8,0.3c-0.3,0-0.6-0.2-0.8-0.4c-0.1,0.1-0.2,0.2-0.4,0.3c0.5,0,0.9,0.1,1.2,0.4c0.1,0.1,0.1,0.2,0.2,0.2
		c-0.4,0.4-1.1,0.4-1.9-0.3c-0.1,0.1-0.2,0.1-0.4,0.2c0.6,0.2,1.1,0.4,1.4,1c-0.1,0-0.2,0.1-0.2,0.1c-0.7,0.2-1.3,0-1.9-0.5
		l-0.1-0.1c-0.2,0.1-0.3,0.2-0.5,0.3c0.8,0.2,1.2,0.7,1.4,1.4c-0.5,0.2-0.9,0.1-1.3,0c-0.4-0.2-0.7-0.5-1-0.9
		c-0.2,0.1-0.5,0.2-0.7,0.3c0.1,0.1,0.2,0.1,0.2,0.1c0.3,0.1,0.5,0.3,0.8,0.4c0.3,0.2,0.5,0.5,0.6,0.9c0,0.1,0,0.1,0,0.2
		c-0.4,0.1-0.8,0-1.1-0.1l0,0l0,0c0,0,0,0,0,0.1c2.6,7.8,5.3,15.5,7.9,23.3l0,0c-0.1,0-1.3,0.1-1.9,0c0-0.1-0.1-0.1-0.1-0.2
		C40.8-83.4,38-91,35.2-98.6c0-0.1-0.1-0.2-0.2-0.3c-0.2-0.2-0.4-0.5-0.6-0.7c-0.2,0-0.4,0.1-0.6,0.2c0.1,0,0.1,0.1,0.2,0.1
		c0.2,0.2,0.4,0.3,0.7,0.5c0.3,0.2,0.5,0.6,0.6,0.9s0.2,0.5,0.3,0.8v0.1c-0.3,0-0.6,0-0.9-0.1c-0.4-0.1-0.7-0.2-1.1-0.4
		c-0.5-0.3-0.9-0.7-1.1-1.3c0-0.1,0-0.1-0.1-0.2l0,0c-0.3,0.1-0.6,0.1-0.9,0.2c1.1,0.6,1.9,1.4,2.1,2.7c-0.8,0-1.5-0.3-2.1-0.7
		s-1.1-1-1.4-1.8c-0.3,0.1-0.5,0.1-0.8,0.2c0.1,0,0.1,0.1,0.1,0.1c0.7,0.4,1.2,0.9,1.5,1.7c0.2,0.5,0.3,0.9,0.4,1.4
		c-0.1,0-0.1,0-0.2,0c-0.3,0-0.5-0.1-0.8-0.3c-0.9-0.5-1.6-1.1-2.2-2c-0.1-0.2-0.2-0.4-0.4-0.7c-0.2,0-0.5,0.1-0.8,0.1
		c0.5,0.3,0.8,0.6,1.2,0.9c0.3,0.4,0.6,0.8,0.7,1.2c0.2,0.5,0.3,0.9,0.3,1.4c-0.2,0-0.4,0-0.6,0c-0.3-0.1-0.6-0.2-0.9-0.4
		c-0.7-0.4-1.2-0.9-1.7-1.6c-0.3-0.4-0.5-0.8-0.5-1.3c-0.3,0-0.5,0.1-0.8,0.1l0.1,0.1c0.5,0.4,1,0.8,1.3,1.4
		c0.4,0.7,0.7,1.5,0.8,2.4c0,0.1,0,0.2,0,0.3c-0.7-0.1-1.3-0.4-1.8-0.9c-0.9-0.7-1.6-1.6-2.1-2.7c0-0.1-0.1-0.1-0.1-0.2
		c-0.2,0.1-0.5,0.1-0.7,0.2c0.1,0.1,0.1,0.1,0.1,0.1c1,1,1.8,2.1,2.2,3.5c0.1,0.3,0.1,0.5,0.1,0.8c0,0.1-0.1,0.2-0.2,0.2
		s-0.3-0.1-0.4-0.1c-0.7-0.2-1.3-0.6-1.9-1.1c-0.7-0.6-1.3-1.2-1.7-2.1c-0.1-0.2-0.2-0.4-0.3-0.7c0-0.1,0-0.1-0.1-0.2
		c-0.3,0.1-0.6,0.2-0.9,0.2c0,0.1,0.1,0.1,0.1,0.2c0.7,0.6,1.4,1.3,1.9,2.1c0.6,0.9,0.9,1.8,1.1,2.8c0,0.1,0,0.1,0,0.2
		c-0.2,0-0.5,0-0.7,0c-0.5-0.1-0.9-0.3-1.4-0.5c-0.9-0.5-1.7-1.3-2.3-2.2c-0.2-0.3-0.4-0.7-0.6-1c-0.2-0.3-0.2-0.6-0.2-1
		c-0.5,0.2-1,0.4-1.5,0.6c0.1,0.1,0.1,0.1,0.2,0.2c0.9,0.7,1.7,1.5,2.4,2.4c0.8,1.1,1.4,2.3,1.7,3.7c0,0,0,0,0,0.1
		c0,0.1,0,0.2-0.2,0.2s-0.4-0.1-0.6-0.1c-0.9-0.2-1.8-0.5-2.6-0.9c-1.2-0.7-2.1-1.7-2.6-3c-0.1-0.2-0.1-0.4-0.2-0.6
		C11.5-87,9.3-80.9,7-74.8H5.1c0-0.1,0-0.1,0.1-0.2c1.6-4.8,3.3-9.7,4.9-14.5c2.2-6.4,4.4-12.8,6.5-19.2c1.5-4.4,3-8.8,4.5-13.1
		c0.4-1.2,1.2-1.8,2.3-2.1c0.4-0.1,0.7-0.1,1.1-0.2c0.1,0,0.1,0,0.2,0h0.1c0.2,0,0.3,0,0.5,0.1c-0.8,2.1-1.6,4.3-2.4,6.4
		c-0.8,2.1-1.6,4.3-2.4,6.4s-1.6,4.3-2.4,6.4c0.1,0,0.1,0,0.1,0c1.3,0,2.5,0,3.8,0.1c1,0.1,2,0.3,3,0.5c1.8,0.4,3.6,0.8,5.3,1.2
		c0.9,0.2,1.8,0.3,2.7,0.4c0.2,0,0.4,0,0.6,0c-2.6-7.1-5.2-14.3-7.8-21.4C25.9-124,26.1-124.1,26.3-124.1L26.3-124.1z"/>
	<path class="st1" d="M48.6-62.7c-0.2-0.1-0.3-0.3-0.3-0.5c-1.4-3.7-2.8-7.5-4.1-11.2c0-0.1,0-0.1-0.1-0.2H46c0,0.1,0.1,0.2,0.1,0.3
		c1.3,3.7,2.5,7.4,3.8,11.1c0,0.1,0.1,0.2,0.1,0.3v0.1c-0.1,0.1-0.1,0.1-0.2,0.1c-0.3,0-0.5,0-0.8,0.1L48.6-62.7L48.6-62.7z"/>
	<path class="st1" d="M1-63c0-0.1,0.1-0.2,0.1-0.2c0.5-1.3,0.9-2.6,1.4-4C3.3-69.5,4-71.7,4.8-74c0-0.1,0.1-0.1,0.1-0.2h1.9
		c0,0.1,0,0.1-0.1,0.2c-1.3,3.6-2.7,7.3-4,10.9c-0.1,0.2-0.2,0.3-0.3,0.4H2c-0.2,0-0.5-0.1-0.7-0.1c-0.1,0-0.3,0-0.3-0.1
		C1-62.9,1-63,1-63z"/>
	<path class="st0" d="M285.3-62.7v-10.4l9.1-14.4h-5.8l-5.7,9.8l-5.8-9.8h-5.9l9.1,14.4v10.4C280.3-62.7,285.3-62.7,285.3-62.7z
		 M255.1-83.3h3.9c2,0,3.2,0,3.7,0.1c0.8,0.1,1.4,0.5,1.9,1c0.4,0.5,0.7,1.2,0.7,2c0,0.7-0.2,1.4-0.5,1.9s-0.8,0.8-1.4,1
		s-2.1,0.3-4.5,0.3h-3.7v-6.3H255.1z M255.1-62.7v-10.4h1c1.1,0,2,0.1,2.5,0.3s1,0.5,1.5,1s1.4,1.7,2.6,3.6l3.6,5.4h6l-3-4.8
		c-1.2-1.9-2.1-3.3-2.8-4c-0.7-0.8-1.6-1.4-2.7-2.1c2.2-0.3,3.8-1.1,4.9-2.3s1.6-2.7,1.6-4.6c0-1.5-0.4-2.8-1.1-3.9
		c-0.7-1.1-1.7-1.9-2.9-2.4c-1.2-0.4-3.1-0.7-5.8-0.7H250v24.8L255.1-62.7L255.1-62.7z M225.1-74.3c0,2.8,0.2,4.9,0.5,6.3
		c0.2,1,0.7,1.9,1.4,2.7c0.7,0.9,1.7,1.6,2.9,2.1s3,0.8,5.4,0.8c2,0,3.6-0.3,4.8-0.8s2.2-1.2,2.9-2s1.2-1.9,1.5-3.1s0.4-3.3,0.4-6.3
		v-13h-5v13.7c0,2-0.1,3.4-0.2,4.2c-0.1,0.8-0.6,1.6-1.3,2.1c-0.7,0.6-1.8,0.9-3.2,0.9s-2.5-0.3-3.3-0.9c-0.8-0.6-1.3-1.4-1.5-2.4
		c-0.1-0.6-0.2-2-0.2-4.1v-13.4h-5L225.1-74.3L225.1-74.3z M209.2-73.5c2.3,0,3.8,0.1,4.4,0.4c0.7,0.2,1.2,0.6,1.6,1.1
		c0.4,0.5,0.5,1.1,0.5,1.9c0,0.9-0.2,1.6-0.7,2.1s-1.1,0.9-1.8,1c-0.5,0.1-1.6,0.2-3.4,0.2h-4.6v-6.6L209.2-73.5L209.2-73.5z
		 M208-83.4c2.4,0,3.8,0,4.3,0.1c0.8,0.1,1.5,0.4,1.9,0.9s0.6,1.1,0.6,1.9c0,0.8-0.2,1.4-0.7,1.9s-1.2,0.8-2,0.9
		c-0.5,0.1-1.7,0.1-3.6,0.1h-3.3v-5.7h2.8V-83.4z M200.1-62.7h8.4c3.2,0,5.2-0.1,6-0.2c1.3-0.1,2.4-0.5,3.4-1.2
		c0.9-0.6,1.6-1.5,2.1-2.6s0.8-2.2,0.8-3.3c0-1.4-0.4-2.7-1.2-3.7c-0.8-1.1-2-1.8-3.5-2.2c1.1-0.5,1.9-1.2,2.5-2.2s0.9-2,0.9-3.2
		c0-1.1-0.3-2-0.8-2.9c-0.5-0.9-1.1-1.6-1.9-2.1c-0.8-0.5-1.6-0.9-2.6-1c-1-0.2-2.4-0.2-4.4-0.2h-9.9v24.8H200.1z M180.1-83.3h3.9
		c2,0,3.2,0,3.7,0.1c0.8,0.1,1.4,0.5,1.9,1c0.4,0.5,0.7,1.2,0.7,2c0,0.7-0.2,1.4-0.5,1.9s-0.8,0.8-1.4,1c-0.6,0.2-2.1,0.3-4.5,0.3
		h-3.7L180.1-83.3L180.1-83.3z M180.1-62.7v-10.4h1c1.1,0,2,0.1,2.5,0.3s1,0.5,1.5,1s1.4,1.7,2.6,3.6l3.6,5.4h6l-3-4.8
		c-1.2-1.9-2.1-3.3-2.8-4c-0.7-0.8-1.6-1.4-2.7-2.1c2.2-0.3,3.8-1.1,4.9-2.3c1.1-1.2,1.6-2.7,1.6-4.6c0-1.5-0.4-2.8-1.1-3.9
		c-0.7-1.1-1.7-1.9-2.9-2.4c-1.2-0.4-3.1-0.7-5.8-0.7H175v24.8L180.1-62.7L180.1-62.7z M170.9-62.7v-4.2H157v-6.7h12.4v-4.2H157
		v-5.5h13.4v-4.2H152v24.8C152-62.7,170.9-62.7,170.9-62.7z M141.4-62.7v-20.6h7.3v-4.2H129v4.2h7.4v20.6
		C136.4-62.7,141.4-62.7,141.4-62.7z M110.5-62.7v-16.2l10,16.2h5v-24.8h-4.6v16.6l-10.1-16.6h-4.9v24.8H110.5z M87.2-72.5l3.3-9.2
		l3.4,9.2H87.2z M93.3-87.5H88l-9.7,24.8h5.3l2-5.6h9.9l2.2,5.6h5.4L93.3-87.5z M69.6-67.8c-1,0.8-2.1,1.3-3.4,1.3
		c-1.8,0-3.3-0.7-4.4-2c-1.1-1.3-1.7-3.6-1.7-6.7c0-3,0.6-5.1,1.7-6.4c1.1-1.3,2.6-2,4.5-2c1.3,0,2.5,0.4,3.4,1.1
		c0.9,0.7,1.5,1.8,1.8,3l5-1.2c-0.6-2-1.4-3.5-2.5-4.6c-1.9-1.8-4.4-2.7-7.4-2.7c-3.5,0-6.3,1.1-8.4,3.4C56-82.2,55-79,55-74.9
		c0,3.9,1.1,7,3.2,9.2c2.1,2.2,4.8,3.4,8.1,3.4c2.7,0,4.9-0.7,6.6-2c1.7-1.3,3-3.3,3.7-6l-4.9-1.5C71.3-70,70.6-68.7,69.6-67.8"/>
</g>
<path class="st2" d="M37.5,0.4c0.3,0.1,0.5,0.2,0.8,0.4c1.4,0.9,1.3,2.9,0,3.7c-0.1,0-0.1,0.1-0.2,0.1c0.1,0.2,0.2,0.5,0.4,0.7
	c0.9,1.4,1.7,2.9,2.7,4.3c0.6,0.9,1.3,1.7,2,2.4c2.4,2.6,5.2,4.5,8.5,5.8c0,0,0.1,0,0.2,0.1c-1,0.1-1.9,0-2.9-0.2
	c-2.3-0.6-4.3-1.7-6.1-3.3c-0.1-0.1-0.2-0.2-0.3-0.2c0,0,0,0-0.1,0c-0.5,0.5-1.1,1-1.7,1.4c-0.4,0.4-0.9,0.8-1.4,1.2
	c-0.2,0.1-0.2,0.3-0.2,0.5c0,3.2,0,6.4,0,9.6c0,0.2-0.1,0.4-0.2,0.5c-0.6,0.7-1.2,1.5-1.8,2.2c0,0.1-0.1,0.1-0.2,0.2
	c-0.5-0.6-0.9-1.2-1.4-1.7c-0.6-0.6-0.8-1.3-0.8-2.2c0.1-2.9,0-5.8,0-8.7c0-0.2-0.1-0.3-0.2-0.4c-1-0.9-2-1.7-3-2.6
	c-2.7,2.3-5.6,4-9.3,3.8c0.1,0,0.1-0.1,0.2-0.1c4.1-1.6,7.4-4.3,10.1-7.7c0.6-0.8,1.1-1.7,1.6-2.5c0.5-0.8,1-1.6,1.5-2.5
	c0.1-0.2,0.2-0.3,0.3-0.5c-0.2-0.2-0.4-0.3-0.6-0.5C35,3.5,34.8,2.8,35,2c0.2-0.8,0.8-1.3,1.6-1.5c0.1,0,0.1,0,0.2-0.1H37.5z"/>
<path class="st2" d="M74,24.2c0,0,0,0.1,0,0.1c-0.1,0.8-0.9,1.2-1.6,1c-0.2-0.1-0.3,0-0.4,0.1c-2.7,3.3-5.5,6.6-8.2,9.9
	c0,0,0,0.1-0.1,0.1c0,0,0,0-0.1,0c0-0.1,0.1-0.3,0.1-0.4c0.5-1.5,1.1-3,1.6-4.6c0.4-1.2,0.8-2.5,1-3.8c0.1-0.5,0.1-0.9,0.1-1.4
	c1.7,0.1,3.4-0.2,5.1-0.5c0-0.1,0-0.2,0-0.3c-0.1-0.7,0.4-1.3,1.1-1.4c0.7-0.1,1.3,0.4,1.4,1.1C73.9,24,74,24.1,74,24.2L74,24.2z"/>
<path class="st2" d="M27.1,36.1c-0.1-0.4-0.1-0.9,0-1.3c0.1-0.2,0.2-0.3,0.4-0.3c0.2,0.1,0.5,0.2,0.7,0.3c0.1,0,0.2,0.1,0.4,0.1
	c-0.1-0.1-0.1-0.2-0.2-0.3c-0.2-0.3-0.3-0.6-0.2-1c0.2-0.6,0.5-1,1-1.6c0.4,0.4,0.8,0.8,1.1,1.2c0.3,0.4,0.3,0.8,0.1,1.2
	c0,0.1-0.1,0.2-0.1,0.3c0.2-0.1,0.4-0.3,0.6-0.4c0.5-0.4,0.8-0.2,0.9,0.4C32,35,32,35.3,32,35.5c-0.3,0-0.6-0.1-0.8,0
	c-0.5,0.1-0.8,0.5-0.9,1c-0.1,0.5,0.1,1,0.5,1.4C30.9,38,31,38,31.1,38c1.5-0.1,2.9-0.3,4.4-0.4c0.2,0,0.3-0.1,0.4-0.3
	c0.7-1,0.2-2.5-0.9-2.8c-0.4-0.1-0.7,0-1.1,0.2c0-0.6,0-1.1,0.1-1.6c0.1-0.4,0.4-0.5,0.7-0.3c0.3,0.1,0.6,0.3,0.9,0.5
	c0.1,0,0.2,0.1,0.3,0.1c-0.1-0.1-0.1-0.3-0.2-0.4c-0.3-0.5-0.3-1.1,0-1.6c0.4-0.6,0.8-1.1,1.2-1.7c0.6,0.7,1.2,1.2,1.5,2
	c0.1,0.4,0.1,0.7-0.1,1.1c-0.1,0.2-0.2,0.3-0.3,0.5c0,0,0,0,0.1,0c0.3-0.2,0.5-0.3,0.8-0.5c0.2-0.1,0.4-0.2,0.6-0.2
	c0.2,0,0.4,0.1,0.5,0.3c0.2,0.6,0.3,1.1,0.2,1.7c-0.3-0.2-0.7-0.3-1.1-0.2c-0.6,0.2-1,0.6-1.2,1.2c-0.2,0.6-0.1,1.2,0.4,1.7
	c0.1,0.1,0.2,0.1,0.3,0.1c1.1,0.1,2.3,0.2,3.4,0.3c0.3,0,0.7,0.1,1,0.1c0.1,0,0.3,0,0.3-0.1c0.7-0.6,0.6-1.8-0.2-2.3
	c-0.3-0.2-0.4-0.2-1.1,0c0.1-0.4,0.2-0.8,0.3-1.2c0.1-0.3,0.3-0.4,0.6-0.2c0.2,0.1,0.4,0.3,0.7,0.4c0.1,0,0.1,0.1,0.2,0.1
	c0-0.1-0.1-0.2-0.1-0.3c-0.2-0.4-0.2-0.7,0.1-1.1c0.3-0.5,0.7-0.9,1.2-1.2c0.4,0.5,0.8,1,0.9,1.5c0.1,0.3,0.1,0.7-0.2,1
	c-0.1,0.1-0.1,0.2-0.2,0.4c0.1,0,0.2-0.1,0.3-0.1c0.1-0.1,0.2-0.1,0.4-0.2c0.6-0.3,0.9-0.1,0.9,0.5c0,0.3,0,0.6,0,0.9
	c-0.1,0-0.1,0-0.1,0c-0.6-0.5-1.7-0.1-1.9,0.9c0,0.2,0,0.5,0.1,0.7c0.1,0.3,0.3,0.5,0.7,0.6c1.3,0.1,2.6,0.2,3.9,0.4
	c0.1,0,0.3,0,0.3-0.1c0.6-0.5,0.5-1.6-0.2-2c-0.3-0.2-0.6-0.2-1,0c0-0.4,0.1-0.8,0.2-1.2c0.1-0.2,0.3-0.2,0.6-0.1
	c0.3,0.1,0.5,0.3,0.8,0.5c0-0.1-0.1-0.2-0.1-0.3c-0.2-0.4-0.2-0.8,0.1-1.1c0.3-0.4,0.6-0.7,1-1.1c0.4,0.5,0.8,1,0.9,1.7
	c0,0.2-0.1,0.4-0.2,0.7c0,0.1-0.1,0.2-0.2,0.4c0.2-0.1,0.4-0.2,0.6-0.3c0.5-0.2,0.7-0.1,0.8,0.5c0,0.2,0,0.4,0,0.6
	c0,0.1,0,0.2,0,0.3c-0.3,0-0.6-0.2-0.8-0.1c-0.9,0.1-1.3,1.3-0.8,2c0.1,0.1,0.2,0.1,0.3,0.1c1.2,0.1,2.5,0.3,3.7,0.4
	c0.6,0.1,1-0.5,0.9-1.1c-0.1-0.7-0.6-1-1.5-0.8c0.1-0.4,0.1-0.7,0.3-1c0.1-0.2,0.3-0.3,0.5-0.1c0.2,0.1,0.4,0.3,0.7,0.5
	c0-0.1,0-0.2-0.1-0.2c-0.2-0.4-0.1-0.8,0.1-1.1c0.3-0.3,0.5-0.6,0.9-0.9c0.3,0.4,0.5,0.8,0.7,1.2c0.2,0.4,0,0.8-0.2,1.2
	c0.1-0.1,0.3-0.1,0.4-0.2c0.1,0,0.2-0.1,0.3-0.1c0.3-0.1,0.5,0,0.5,0.4c0,0.3,0,0.6,0,0.9c-0.6-0.3-1-0.3-1.4,0.1
	c-0.3,0.4-0.4,0.9-0.1,1.4c0.1,0.1,0.2,0.2,0.3,0.2c0.8,0.1,1.6,0.2,2.4,0.2c0.3,0,0.5,0,0.8-0.1c0.4-0.1,0.6-0.7,0.5-1.2
	c-0.1-0.4-0.6-0.7-1.1-0.5c0,0,0,0-0.1,0c0.1-0.3,0.1-0.6,0.2-0.9c0.1-0.2,0.3-0.3,0.5-0.1c0.2,0.1,0.4,0.2,0.6,0.4
	c-0.2-0.4-0.3-0.8,0-1.1c0.2-0.3,0.5-0.5,0.8-0.9c0.2,0.4,0.4,0.7,0.6,1c0.2,0.4,0,0.7-0.2,1.1c0.2-0.1,0.3-0.2,0.5-0.2
	c0.3-0.1,0.5,0,0.5,0.3c0,0.1,0,0.3,0,0.5c0,0.1,0,0.2,0,0.2c-0.2,0-0.4-0.1-0.6-0.1c-0.4,0-0.7,0.4-0.8,0.8c-0.1,0.4,0.1,0.7,0.4,1
	c0.2,0.2,0.3,0.5,0.3,0.7c0,0.4,0,0.7,0,1.1c0,0.4-0.2,0.6-0.6,0.6c-0.1,0-0.2,0-0.3,0c-17.1,0-34.2,0-51.3,0
	c-0.7,0-0.9-0.2-0.9-0.9c0-0.3,0-0.5,0-0.8c0-0.4,0.1-0.7,0.4-0.9c0.4-0.3,0.4-0.8,0.2-1.3c-0.3-0.4-0.7-0.5-1.1-0.3c0,0,0,0-0.1,0
	c0-0.3,0-0.6,0-0.9c0-0.3,0.2-0.3,0.4-0.3c0.2,0.1,0.4,0.2,0.7,0.2c-0.2-0.3-0.4-0.7-0.2-1.1c0.2-0.3,0.4-0.6,0.6-1
	c0.6,0.6,1.3,1,0.8,1.9c0.2-0.2,0.4-0.3,0.6-0.4c0.3-0.2,0.5-0.1,0.6,0.2c0.1,0.2,0.1,0.5,0.1,0.7c-0.6-0.1-0.9,0-1.1,0.3
	c-0.2,0.4-0.2,0.8,0.1,1.2c0.2,0.3,0.5,0.4,0.8,0.3c0.9-0.1,1.9-0.2,2.8-0.3c0.1,0,0.1-0.1,0.2-0.1c0.3-0.3,0.3-0.8,0.1-1.2
	c-0.2-0.4-0.6-0.6-1-0.6c-0.2,0-0.3,0.1-0.5,0.2c-0.1-0.3-0.1-0.7,0-1.1c0-0.1,0.2-0.2,0.3-0.2c0.2,0,0.4,0.1,0.6,0.2
	c0.1,0,0.2,0.1,0.3,0.1c-0.1-0.1-0.1-0.2-0.2-0.3c-0.2-0.3-0.3-0.5-0.1-0.8c0.2-0.4,0.4-0.8,0.7-1.3c0.7,0.7,1.5,1.1,0.9,2.3
	c0.3-0.2,0.5-0.3,0.6-0.5c0.3-0.2,0.6-0.1,0.7,0.3c0.1,0.3,0.1,0.5,0.1,0.8c-0.3-0.1-0.7-0.2-0.9,0c-0.2,0.2-0.4,0.4-0.5,0.6
	c-0.1,0.3-0.1,0.6,0,0.9c0.2,0.4,0.3,0.5,0.8,0.4c1.2-0.1,2.4-0.2,3.6-0.4c0.2,0,0.3-0.1,0.4-0.3c0.4-0.8,0-1.8-0.8-1.9
	c-0.3,0-0.5,0.1-0.8,0.1c-0.1-0.3-0.1-0.8,0-1.2c0.1-0.2,0.2-0.3,0.4-0.2c0.3,0.1,0.6,0.2,1,0.4c-0.1-0.1-0.1-0.2-0.2-0.3
	c-0.2-0.3-0.2-0.6-0.1-0.9c0.2-0.5,0.5-0.9,0.9-1.4c0.4,0.4,0.7,0.7,1,1.1c0.4,0.4,0.2,0.9,0,1.4c0,0,0,0,0.1,0
	c0.2-0.1,0.4-0.3,0.5-0.4c0.5-0.3,0.8-0.2,0.9,0.4c0.1,0.3,0.1,0.5,0.1,0.8c-0.1,0-0.1,0-0.1,0c-0.6-0.2-1.1,0-1.4,0.6
	c-0.3,0.5-0.1,1.3,0.3,1.6c0.1,0,0.1,0.1,0.2,0.1c1.3-0.1,2.5-0.2,3.8-0.4c0,0,0,0,0.1,0c0.6-0.1,0.9-0.3,0.9-1
	c0.1-0.8-0.6-1.5-1.3-1.4C27.5,35.9,27.3,36,27.1,36.1"/>
<path class="st2" d="M37.1,44.6c7.9,0,15.8,0,23.7,0c0.7,0,0.8,0.2,0.8,0.8c0,0.6,0,1.2,0,1.8c0,0.4-0.3,0.7-0.7,0.7
	c-0.1,0-0.1,0-0.2,0c-15.8,0-31.5,0-47.3,0c-0.1,0-0.2,0-0.2,0c-0.4,0-0.6-0.3-0.6-0.7c0-0.7,0-1.4,0-2.1c0-0.4,0.3-0.6,0.7-0.6
	c0.1,0,0.2,0,0.3,0H37.1z"/>
<path class="st2" d="M37.1,52.1c-7.8,0-15.5,0-23.3,0c-0.6,0-0.8-0.1-0.8-0.6c0-0.3,0-0.6,0-0.8c0-0.3,0.2-0.4,0.6-0.4
	c0.1,0,0.2,0,0.2,0c15.5,0,31,0,46.5,0c0.7,0,0.9,0.1,0.9,0.6c0,0.2,0,0.5,0,0.7c0,0.4-0.2,0.5-0.8,0.5c-5.1,0-10.2,0-15.3,0H37.1z"
	/>
<path class="st2" d="M49.5,19.5c0.4-0.2,0.8-0.3,1.1-0.5c0.3-0.2,0.7-0.3,1-0.5c1.5-0.6,2.8-1.6,4.1-2.5c0,0,0,0,0.1-0.1
	c-0.8-0.7-1-1.4-0.6-2.2c0.3-0.7,1.1-1,1.8-0.8c0.7,0.2,1.3,0.8,1.3,1.6c0,0.8-0.5,1.4-1.4,1.7c0,0.1,0,0.1,0.1,0.2
	c0.4,0.9,0.8,1.7,1.2,2.6c0.2,0.4,0.6,0.8,0.8,1.3c0.5,0.7,1,1.3,1.4,2c0,0.1,0.1,0.1,0.1,0.2c-0.7,0.2-1.3,0.5-1.9,0.7
	c-1.5,0.6-1.5,0.6-2.4,2.1c-1.4,2.4-2.8,4.9-4.2,7.3c0,0.1-0.1,0.1-0.2,0.2c0-0.1,0-0.2,0-0.3c0-2.6,0-5.2,0-7.8c0-0.5,0-1,0-1.5
	c0-0.4-0.1-0.8-0.3-1.1c-0.6-0.8-1.2-1.5-1.8-2.3C49.6,19.7,49.6,19.6,49.5,19.5"/>
<path class="st2" d="M24.8,19.7c-0.5,0.5-0.9,1-1.3,1.6c-0.3,0.4-0.6,0.9-0.9,1.3c-0.1,0.1-0.1,0.3-0.1,0.5c0,3.3,0,6.5,0,9.9
	c-0.1-0.1-0.1-0.2-0.2-0.3c-1.6-2.7-3.1-5.4-4.7-8.1c-0.2-0.3-0.4-0.5-0.7-0.6c-0.9-0.4-1.9-0.8-2.9-1.2c-0.1,0-0.2-0.1-0.3-0.1
	c0.3-0.4,0.6-0.8,0.8-1.2c0.4-0.6,0.9-1.2,1.3-1.9c0.3-0.4,0.5-0.9,0.7-1.3c0.3-0.6,0.6-1.3,0.9-1.9c-0.6-0.1-1-0.4-1.3-0.9
	c-0.2-0.3-0.2-0.7-0.1-1c0.1-0.7,0.7-1.3,1.5-1.4c0.7-0.1,1.4,0.3,1.7,1c0.3,0.7,0.1,1.5-0.7,2.1c0.1,0.1,0.2,0.1,0.2,0.2
	c0.7,0.5,1.3,1,2.1,1.5c0.5,0.3,1.1,0.6,1.7,0.9C23.2,19.1,24,19.4,24.8,19.7"/>
<path class="st2" d="M7.9,25.4c-0.1,1.1,0.1,2.2,0.4,3.2c0.6,2,1.3,4,2,5.9c0.1,0.3,0.2,0.7,0.3,1c-0.3-0.4-0.7-0.8-1-1.3
	c-2.4-2.9-4.9-5.8-7.3-8.7c-0.1-0.2-0.2-0.2-0.4-0.1c-0.5,0.2-1.1,0-1.4-0.5c-0.3-0.5-0.2-1.1,0.1-1.5c0.4-0.4,1-0.5,1.5-0.3
	c0.5,0.2,0.8,0.8,0.7,1.3c0,0.1,0,0.1,0,0.2c0.9,0.1,1.7,0.3,2.6,0.4C6.1,25.3,7,25.3,7.9,25.4"/>
<path class="st2" d="M67.6,24.2c-0.9,0-1.8-0.1-2.7-0.1c-0.2,0-0.3,0-0.4,0.2c-2,3-4.1,6-6.2,8.9c0,0.1-0.1,0.1-0.2,0.1
	c0.3-0.7,0.6-1.4,0.9-2.1c1.2-2.6,2.3-5.3,3.5-7.9c0.1-0.2,0.1-0.3-0.1-0.4c-0.7-0.8-1.4-1.5-2.1-2.3C62.7,22.1,65,23.4,67.6,24.2
	C67.6,24.2,67.6,24.2,67.6,24.2"/>
<path class="st2" d="M6.7,24.4c2.6-0.8,4.9-2.1,7.1-3.6c0,0,0,0,0,0.1c-0.3,0.4-0.6,0.7-1,1.1c-0.4,0.4-0.8,0.8-1.1,1.3
	c-0.1,0.1-0.1,0.2-0.1,0.4c1.4,3.3,2.9,6.6,4.3,9.8c0,0.1,0.1,0.1,0,0.2c-0.2-0.3-0.5-0.7-0.7-1c-1.9-2.7-3.7-5.4-5.6-8.1
	c-0.1-0.2-0.2-0.2-0.4-0.2c-0.8,0.1-1.6,0.1-2.4,0.1C6.8,24.5,6.7,24.5,6.7,24.4C6.7,24.4,6.7,24.4,6.7,24.4"/>
<g>
	<path class="st3" d="M122.7,38.3c-1.3,3.9-3.7,7.1-6.9,9.4c-3.3,2.3-6.9,3.5-10.8,3.5c-5,0.1-9.4-1.7-13.3-5.5
		c-3.8-3.8-5.8-8.2-5.9-13.4c-0.1-5.5,1.8-10.2,5.8-14.1c4-4,8.7-5.8,14.2-5.5c4.9,0.3,9.1,2.3,12.7,6c3.5,3.7,5.2,7.8,5.2,12.3v2.6
		H90.7c0.4,3.7,1.9,6.7,4.7,9.1c2.8,2.4,6,3.6,9.7,3.5c5.8-0.1,9.9-2.8,12.4-8H122.7z M118.8,29.2c-0.7-3.4-2.3-6.2-4.8-8.3
		c-2.5-2.1-5.5-3.2-9-3.3c-3.5-0.1-6.6,1-9.2,3.1s-4.2,4.9-4.9,8.4H118.8z"/>
	<path class="st3" d="M180.5,50.3h-5.1V27.8c0-2.8-0.8-5.3-2.4-7.3s-3.8-3-6.4-3c-2.7,0-5,0.9-7,2.6c-1.9,1.7-2.9,3.9-2.9,6.5v23.5
		h-5.1V26.7c0-2.6-1-4.8-3-6.5c-1.9-1.7-4.2-2.6-6.9-2.6c-2.6,0-4.7,1-6.4,3c-1.6,2-2.4,4.4-2.4,7.3v22.5h-5.1V28.4
		c0-4.6,1.3-8.3,3.9-11c2.4-2.6,5.6-4.1,9.6-4.4c5.3-0.4,9.6,1.9,12.7,6.8c3.1-4.9,7.4-7.2,12.7-6.8c4,0.3,7.2,1.8,9.7,4.4
		c2.6,2.8,4,6.5,4,11V50.3z"/>
	<path class="st3" d="M190.6,63.1h-4.7V32.3c0,0,0-0.2,0-0.3c0-5.3,1.9-9.8,5.7-13.6c3.8-3.8,8.4-5.7,13.7-5.5
		c5.1,0.1,9.4,2.1,12.9,5.8c3.5,3.7,5.3,8.1,5.3,13.3c0,5.3-1.9,9.9-5.7,13.8c-3.8,3.8-8.3,5.6-13.6,5.5c-5.4-0.2-9.9-2.4-13.5-6.5
		V63.1z M205.2,17.7c-4-0.2-7.4,1.2-10.3,4.2c-2.8,3-4.2,6.5-4.1,10.5c0.1,3.8,1.5,7.1,4.1,9.9c2.6,2.8,5.8,4.1,9.6,4.1
		c3.8,0,7.1-1.3,9.9-4.1c2.8-2.8,4.2-6,4.2-9.9c0.1-3.8-1.2-7.2-3.8-10.1C212.1,19.4,209,17.8,205.2,17.7z"/>
	<path class="st3" d="M233,9.4h-4.8V0.8h4.8V9.4z M233,50.3h-4.8V13.7h4.8V50.3z"/>
	<path class="st3" d="M245.1,50.3h-5.1V13.7h4.6v5.2c1-2,2.6-3.5,4.6-4.6c1.9-1,3.7-1.4,5.6-1.3v4.9c-2.2,0.1-4.1,0.7-5.5,1.9
		c-1.4,1.2-2.4,2.2-2.9,3c-0.8,1.4-1.2,3.3-1.2,5.6V50.3z"/>
	<path class="st3" d="M293.5,38.3c-1.3,3.9-3.7,7.1-6.9,9.4c-3.3,2.3-6.9,3.5-10.8,3.5c-5,0.1-9.4-1.7-13.3-5.5
		c-3.9-3.8-5.8-8.2-5.9-13.4c-0.1-5.5,1.8-10.2,5.8-14.1c4-4,8.7-5.8,14.2-5.5c4.9,0.3,9.1,2.3,12.7,6c3.5,3.7,5.2,7.8,5.2,12.3v2.6
		h-32.8c0.4,3.7,1.9,6.7,4.7,9.1s6,3.6,9.7,3.5c5.8-0.1,9.9-2.8,12.4-8H293.5z M289.6,29.2c-0.7-3.4-2.3-6.2-4.8-8.3s-5.5-3.2-9-3.3
		c-3.5-0.1-6.6,1-9.2,3.1s-4.2,4.9-4.9,8.4H289.6z"/>
</g>
</svg>
