<?xml version="1.0" encoding="utf-8"?>
<!-- Generator: Adobe Illustrator 26.1.0, SVG Export Plug-In . SVG Version: 6.00 Build 0)  -->
<svg version="1.1" id="Layer_1" xmlns="http://www.w3.org/2000/svg" xmlns:xlink="http://www.w3.org/1999/xlink" x="0px" y="0px"
	 viewBox="0 0 99.2 20" style="enable-background:new 0 0 99.2 20;" xml:space="preserve">
<style type="text/css">
	.st0{fill:#FFFFFF;stroke:#FFFFFF;stroke-width:0.75;stroke-miterlimit:10;}
	.st1{fill:#CC9900;}
</style>
<g>
	<path class="st0" d="M41.6,11.8c-0.4,1.2-1.1,2.2-2.2,2.9c-1,0.7-2.1,1.1-3.4,1.1c-1.6,0-2.9-0.5-4.1-1.7s-1.8-2.6-1.8-4.2
		c0-1.7,0.6-3.2,1.8-4.4c1.3-1.2,2.7-1.8,4.4-1.7c1.5,0.1,2.8,0.7,4,1.9c1.1,1.1,1.6,2.4,1.6,3.8v0.8H31.6c0.1,1.1,0.6,2.1,1.5,2.8
		c0.9,0.7,1.9,1.1,3,1.1c1.8,0,3.1-0.9,3.9-2.5L41.6,11.8L41.6,11.8z M40.4,8.9c-0.2-1.1-0.7-1.9-1.5-2.6s-1.7-1-2.8-1
		c-1.1,0-2.1,0.3-2.9,1s-1.3,1.5-1.6,2.6H40.4z"/>
	<path class="st0" d="M59.6,15.5H58v-7c0-0.9-0.3-1.6-0.8-2.3s-1.2-0.9-2-0.9S53.6,5.6,53,6.1c-0.6,0.5-0.9,1.2-0.9,2v7.3h-1.6V8.1
		c0-0.8-0.3-1.5-0.9-2c-0.6-0.5-1.3-0.8-2.2-0.8c-0.8,0-1.5,0.3-2,0.9s-0.7,1.4-0.7,2.3v7h-1.5V8.7c0-1.4,0.4-2.6,1.2-3.4
		c0.8-0.9,1.8-1.4,3.1-1.5c1.7-0.1,3,0.6,4,2.1c1-1.5,2.3-2.3,4-2.1c1.2,0.1,2.2,0.6,3,1.4c0.8,0.9,1.2,2,1.2,3.4L59.6,15.5
		L59.6,15.5z"/>
	<path class="st0" d="M62.8,19.5h-1.5V9.9V9.8c0-1.6,0.6-3.1,1.8-4.2c1.2-1.3,2.6-1.8,4.2-1.8s2.9,0.6,4,1.8S73,8.1,73,9.7
		c0,1.7-0.6,3.1-1.8,4.3c-1.2,1.2-2.6,1.8-4.2,1.7c-1.7-0.1-3.1-0.7-4.2-2C62.8,13.7,62.8,19.5,62.8,19.5z M67.3,5.3
		C66,5.2,65,5.7,64.1,6.6c-0.9,0.9-1.3,2-1.3,3.3c0,1.2,0.5,2.2,1.3,3.1c0.8,0.9,1.8,1.3,3,1.3c1.2,0,2.2-0.4,3.1-1.3
		s1.3-1.9,1.3-3.1s-0.4-2.2-1.2-3.1C69.5,5.8,68.5,5.4,67.3,5.3z"/>
	<path class="st0" d="M76,2.7h-1.5V0.1H76V2.7z M76,15.5h-1.5V4.1H76V15.5z"/>
	<path class="st0" d="M79.8,15.5h-1.6V4.1h1.4v1.6c0.3-0.6,0.8-1.1,1.4-1.4s1.2-0.5,1.8-0.4v1.5c-0.7,0-1.3,0.2-1.7,0.6
		c-0.4,0.4-0.7,0.7-0.9,0.9c-0.3,0.4-0.4,1-0.4,1.8V15.5z"/>
	<path class="st0" d="M94.9,11.8c-0.4,1.2-1.1,2.2-2.2,2.9c-1,0.7-2.1,1.1-3.4,1.1c-1.6,0-2.9-0.5-4.1-1.7s-1.8-2.6-1.8-4.2
		c0-1.7,0.6-3.2,1.8-4.4c1.3-1.2,2.7-1.8,4.4-1.7c1.5,0.1,2.8,0.7,4,1.9c1.1,1.1,1.6,2.4,1.6,3.8v0.8H84.9c0.1,1.1,0.6,2.1,1.5,2.8
		s1.9,1.1,3,1.1c1.8,0,3.1-0.9,3.9-2.5L94.9,11.8L94.9,11.8z M93.6,8.9c-0.2-1.1-0.7-1.9-1.5-2.6s-1.7-1-2.8-1c-1.1,0-2.1,0.3-2.9,1
		s-1.3,1.5-1.5,2.6H93.6z"/>
</g>
<path class="st1" d="M13.7,0c0.1,0,0.2,0.1,0.2,0.1c0.4,0.3,0.4,0.9,0,1.2c0,0,0,0-0.1,0c0,0.1,0.1,0.2,0.1,0.2
	c0.3,0.4,0.5,0.9,0.8,1.3c0.2,0.3,0.4,0.5,0.6,0.8c0.8,0.8,1.6,1.4,2.7,1.8c0,0,0,0,0.1,0c-0.3,0-0.6,0-0.9-0.1
	c-0.7-0.2-1.3-0.5-1.9-1c0,0-0.1-0.1-0.1-0.1c0,0,0,0,0,0c-0.2,0.1-0.3,0.3-0.5,0.4c-0.1,0.1-0.3,0.2-0.4,0.4
	c-0.1,0-0.1,0.1-0.1,0.2c0,1,0,2,0,3c0,0.1,0,0.1-0.1,0.2c-0.2,0.2-0.4,0.5-0.6,0.7c0,0,0,0,0,0.1c-0.1-0.2-0.3-0.4-0.4-0.5
	c-0.2-0.2-0.2-0.4-0.2-0.7c0-0.9,0-1.8,0-2.7c0-0.1,0-0.1-0.1-0.1c-0.3-0.3-0.6-0.5-0.9-0.8C11,5,10.1,5.6,9,5.5c0,0,0,0,0.1,0
	c1.3-0.5,2.3-1.3,3.2-2.4c0.2-0.2,0.3-0.5,0.5-0.8C12.8,2,13,1.8,13.2,1.5c0-0.1,0.1-0.1,0.1-0.2c-0.1-0.1-0.1-0.1-0.2-0.2
	c-0.2-0.2-0.2-0.4-0.2-0.7c0.1-0.3,0.2-0.4,0.5-0.5c0,0,0,0,0.1,0H13.7z"/>
<path class="st1" d="M25,7.5C25,7.5,25,7.5,25,7.5c-0.1,0.3-0.3,0.4-0.5,0.3c-0.1,0-0.1,0-0.1,0c-0.9,1-1.7,2.1-2.6,3.1c0,0,0,0,0,0
	c0,0,0,0,0,0c0,0,0-0.1,0-0.1c0.2-0.5,0.3-0.9,0.5-1.4c0.1-0.4,0.3-0.8,0.3-1.2c0-0.1,0-0.3,0-0.5c0.5,0,1.1-0.1,1.6-0.2
	c0,0,0-0.1,0-0.1c0-0.2,0.1-0.4,0.3-0.4C24.8,7,25,7.2,25,7.5C25,7.4,25,7.4,25,7.5L25,7.5z"/>
<path class="st1" d="M10.4,11.2c0-0.1,0-0.3,0-0.4c0-0.1,0.1-0.1,0.1-0.1c0.1,0,0.2,0.1,0.2,0.1c0,0,0.1,0,0.1,0c0,0,0-0.1-0.1-0.1
	c-0.1-0.1-0.1-0.2,0-0.3c0.1-0.2,0.2-0.3,0.3-0.5c0.1,0.1,0.2,0.2,0.3,0.4c0.1,0.1,0.1,0.2,0,0.4c0,0,0,0.1,0,0.1
	c0.1,0,0.1-0.1,0.2-0.1c0.2-0.1,0.3-0.1,0.3,0.1c0,0.1,0,0.2,0,0.3c-0.1,0-0.2,0-0.3,0c-0.2,0-0.2,0.2-0.3,0.3c0,0.2,0,0.3,0.2,0.4
	c0,0,0.1,0,0.1,0c0.5,0,0.9-0.1,1.4-0.1c0.1,0,0.1,0,0.1-0.1c0.2-0.3,0.1-0.8-0.3-0.9c-0.1,0-0.2,0-0.3,0.1c0-0.2,0-0.3,0-0.5
	c0-0.1,0.1-0.2,0.2-0.1c0.1,0,0.2,0.1,0.3,0.2c0,0,0.1,0,0.1,0c0,0,0-0.1-0.1-0.1C13,10,13,9.9,13.1,9.7c0.1-0.2,0.2-0.3,0.4-0.5
	c0.2,0.2,0.4,0.4,0.5,0.6c0,0.1,0,0.2,0,0.3c0,0.1-0.1,0.1-0.1,0.2c0,0,0,0,0,0c0.1,0,0.2-0.1,0.2-0.1c0.1,0,0.1-0.1,0.2-0.1
	c0.1,0,0.1,0,0.2,0.1c0.1,0.2,0.1,0.3,0.1,0.5c-0.1-0.1-0.2-0.1-0.3-0.1c-0.2,0-0.3,0.2-0.4,0.4c-0.1,0.2,0,0.4,0.1,0.5
	c0,0,0.1,0,0.1,0c0.4,0,0.7,0.1,1.1,0.1c0.1,0,0.2,0,0.3,0c0,0,0.1,0,0.1,0c0.2-0.2,0.2-0.6-0.1-0.7c-0.1-0.1-0.1-0.1-0.3,0
	c0-0.1,0-0.3,0.1-0.4c0-0.1,0.1-0.1,0.2-0.1c0.1,0,0.1,0.1,0.2,0.1c0,0,0,0,0.1,0c0,0,0-0.1,0-0.1c-0.1-0.1,0-0.2,0-0.3
	c0.1-0.2,0.2-0.3,0.4-0.4c0.1,0.2,0.2,0.3,0.3,0.5c0,0.1,0,0.2,0,0.3c0,0,0,0.1-0.1,0.1c0,0,0.1,0,0.1,0c0,0,0.1,0,0.1-0.1
	c0.2-0.1,0.3,0,0.3,0.2c0,0.1,0,0.2,0,0.3c0,0,0,0,0,0c-0.2-0.2-0.5,0-0.6,0.3c0,0.1,0,0.2,0,0.2c0,0.1,0.1,0.2,0.2,0.2
	c0.4,0,0.8,0.1,1.2,0.1c0,0,0.1,0,0.1,0c0.2-0.2,0.2-0.5-0.1-0.6c-0.1-0.1-0.2,0-0.3,0c0-0.1,0-0.3,0.1-0.4c0-0.1,0.1-0.1,0.2,0
	c0.1,0,0.2,0.1,0.2,0.2c0,0,0-0.1,0-0.1c-0.1-0.1,0-0.2,0-0.4c0.1-0.1,0.2-0.2,0.3-0.3c0.1,0.2,0.3,0.3,0.3,0.5c0,0.1,0,0.1,0,0.2
	c0,0,0,0.1-0.1,0.1c0.1,0,0.1-0.1,0.2-0.1c0.2-0.1,0.2,0,0.2,0.1c0,0.1,0,0.1,0,0.2c0,0,0,0.1,0,0.1c-0.1,0-0.2-0.1-0.3,0
	c-0.3,0-0.4,0.4-0.2,0.6c0,0,0.1,0,0.1,0c0.4,0,0.8,0.1,1.2,0.1c0.2,0,0.3-0.1,0.3-0.3c0-0.2-0.2-0.3-0.5-0.3c0-0.1,0-0.2,0.1-0.3
	c0-0.1,0.1-0.1,0.2,0c0.1,0,0.1,0.1,0.2,0.1c0,0,0-0.1,0-0.1c-0.1-0.1,0-0.2,0-0.3c0.1-0.1,0.2-0.2,0.3-0.3c0.1,0.1,0.2,0.2,0.2,0.4
	c0.1,0.1,0,0.3-0.1,0.4c0,0,0.1,0,0.1-0.1c0,0,0.1,0,0.1,0c0.1,0,0.2,0,0.2,0.1c0,0.1,0,0.2,0,0.3c-0.2-0.1-0.3-0.1-0.4,0
	C20,11.9,20,12,20,12.2c0,0,0.1,0.1,0.1,0.1c0.3,0,0.5,0.1,0.8,0.1c0.1,0,0.2,0,0.2,0c0.1,0,0.2-0.2,0.1-0.4c0-0.1-0.2-0.2-0.3-0.2
	c0,0,0,0,0,0c0-0.1,0-0.2,0.1-0.3c0-0.1,0.1-0.1,0.2,0c0.1,0,0.1,0.1,0.2,0.1c-0.1-0.1-0.1-0.2,0-0.3c0.1-0.1,0.2-0.2,0.3-0.3
	c0.1,0.1,0.1,0.2,0.2,0.3c0.1,0.1,0,0.2-0.1,0.3c0.1,0,0.1-0.1,0.2-0.1c0.1,0,0.2,0,0.2,0.1c0,0,0,0.1,0,0.1c0,0,0,0.1,0,0.1
	c-0.1,0-0.1,0-0.2,0c-0.1,0-0.2,0.1-0.2,0.2c0,0.1,0,0.2,0.1,0.3c0.1,0.1,0.1,0.1,0.1,0.2c0,0.1,0,0.2,0,0.3c0,0.1-0.1,0.2-0.2,0.2
	c0,0-0.1,0-0.1,0c-5.3,0-10.7,0-16,0c-0.2,0-0.3-0.1-0.3-0.3c0-0.1,0-0.2,0-0.2c0-0.1,0-0.2,0.1-0.3c0.1-0.1,0.1-0.3,0.1-0.4
	c-0.1-0.1-0.2-0.2-0.4-0.1c0,0,0,0,0,0c0-0.1,0-0.2,0-0.3c0-0.1,0.1-0.1,0.1-0.1c0.1,0,0.1,0.1,0.2,0.1c-0.1-0.1-0.1-0.2-0.1-0.3
	c0.1-0.1,0.1-0.2,0.2-0.3c0.2,0.2,0.4,0.3,0.3,0.6c0.1-0.1,0.1-0.1,0.2-0.1c0.1-0.1,0.2,0,0.2,0.1c0,0.1,0,0.2,0,0.2
	c-0.2,0-0.3,0-0.3,0.1c-0.1,0.1-0.1,0.3,0,0.4c0.1,0.1,0.2,0.1,0.3,0.1c0.3,0,0.6-0.1,0.9-0.1c0,0,0,0,0.1,0c0.1-0.1,0.1-0.3,0-0.4
	c-0.1-0.1-0.2-0.2-0.3-0.2c-0.1,0-0.1,0-0.2,0c0-0.1,0-0.2,0-0.3c0,0,0.1-0.1,0.1-0.1c0.1,0,0.1,0,0.2,0.1c0,0,0.1,0,0.1,0
	c0,0,0-0.1-0.1-0.1c-0.1-0.1-0.1-0.2,0-0.3c0.1-0.1,0.1-0.3,0.2-0.4c0.2,0.2,0.5,0.4,0.3,0.7c0.1-0.1,0.1-0.1,0.2-0.1
	c0.1-0.1,0.2,0,0.2,0.1c0,0.1,0,0.2,0,0.3c-0.1,0-0.2-0.1-0.3,0c-0.1,0-0.1,0.1-0.1,0.2c0,0.1,0,0.2,0,0.3c0.1,0.1,0.1,0.1,0.2,0.1
	c0.4,0,0.8-0.1,1.1-0.1c0.1,0,0.1,0,0.1-0.1c0.1-0.2,0-0.5-0.3-0.6c-0.1,0-0.2,0-0.3,0c0-0.1,0-0.2,0-0.4C8.4,11,8.5,11,8.5,11
	c0.1,0,0.2,0.1,0.3,0.1c0,0,0-0.1-0.1-0.1c-0.1-0.1-0.1-0.2,0-0.3c0.1-0.2,0.2-0.3,0.3-0.4c0.1,0.1,0.2,0.2,0.3,0.3
	c0.1,0.1,0.1,0.3,0,0.4c0,0,0,0,0,0c0.1,0,0.1-0.1,0.2-0.1c0.2-0.1,0.2-0.1,0.3,0.1c0,0.1,0,0.2,0,0.3c0,0,0,0,0,0
	c-0.2-0.1-0.3,0-0.4,0.2c-0.1,0.2,0,0.4,0.1,0.5c0,0,0,0,0.1,0c0.4,0,0.8-0.1,1.2-0.1c0,0,0,0,0,0c0.2,0,0.3-0.1,0.3-0.3
	c0-0.2-0.2-0.5-0.4-0.4C10.5,11.1,10.5,11.1,10.4,11.2"/>
<path class="st1" d="M13.5,13.9c2.5,0,4.9,0,7.4,0c0.2,0,0.3,0.1,0.3,0.3c0,0.2,0,0.4,0,0.6c0,0.1-0.1,0.2-0.2,0.2c0,0,0,0-0.1,0
	c-4.9,0-9.9,0-14.8,0c0,0-0.1,0-0.1,0c-0.1,0-0.2-0.1-0.2-0.2c0-0.2,0-0.4,0-0.6c0-0.1,0.1-0.2,0.2-0.2c0,0,0.1,0,0.1,0H13.5z"/>
<path class="st1" d="M17.4,6c0.1-0.1,0.2-0.1,0.4-0.2c0.1,0,0.2-0.1,0.3-0.1c0.5-0.2,0.9-0.5,1.3-0.8c0,0,0,0,0,0
	c-0.2-0.2-0.3-0.4-0.2-0.7c0.1-0.2,0.3-0.3,0.6-0.3C20,4,20.1,4.2,20.1,4.4c0,0.3-0.2,0.4-0.5,0.5c0,0,0,0,0,0.1
	c0.1,0.3,0.2,0.5,0.4,0.8c0.1,0.1,0.2,0.3,0.3,0.4c0.1,0.2,0.3,0.4,0.5,0.6c0,0,0,0,0,0.1c-0.2,0.1-0.4,0.1-0.6,0.2
	c-0.5,0.2-0.5,0.2-0.7,0.6c-0.4,0.8-0.9,1.5-1.3,2.3c0,0,0,0,0,0.1c0,0,0-0.1,0-0.1c0-0.8,0-1.6,0-2.4c0-0.2,0-0.3,0-0.5
	c0-0.1,0-0.2-0.1-0.3C17.8,6.6,17.6,6.3,17.4,6C17.4,6.1,17.4,6,17.4,6"/>
<path class="st1" d="M9.7,6.1C9.5,6.2,9.4,6.4,9.3,6.6C9.2,6.7,9.1,6.8,9,7c0,0,0,0.1,0,0.2c0,1,0,2,0,3.1c0,0,0-0.1-0.1-0.1
	c-0.5-0.8-1-1.7-1.5-2.5C7.4,7.5,7.3,7.4,7.2,7.4C6.9,7.3,6.6,7.2,6.3,7c0,0-0.1,0-0.1,0c0.1-0.1,0.2-0.2,0.3-0.4
	c0.1-0.2,0.3-0.4,0.4-0.6C7,5.9,7.1,5.8,7.1,5.6C7.2,5.4,7.3,5.2,7.4,5C7.2,5,7.1,4.9,7,4.7c0-0.1-0.1-0.2,0-0.3C7,4.2,7.2,4,7.4,4
	c0.2,0,0.4,0.1,0.5,0.3C8,4.5,8,4.8,7.7,5c0,0,0,0,0.1,0.1C8,5.2,8.2,5.3,8.4,5.5C8.6,5.6,8.8,5.7,9,5.7C9.2,5.9,9.4,6,9.7,6.1"/>
<path class="st1" d="M6.6,7.9c0,0.3,0,0.7,0.1,1c0.2,0.6,0.4,1.2,0.6,1.9c0,0.1,0.1,0.2,0.1,0.3c-0.1-0.1-0.2-0.3-0.3-0.4
	C6.4,9.8,5.6,8.9,4.9,8c0,0-0.1-0.1-0.1,0C4.6,8,4.4,7.9,4.3,7.8c-0.1-0.1-0.1-0.3,0-0.5c0.1-0.1,0.3-0.2,0.5-0.1
	C4.9,7.3,5,7.5,5,7.6c0,0,0,0,0,0.1c0.3,0,0.5,0.1,0.8,0.1C6.1,7.9,6.3,7.9,6.6,7.9"/>
<path class="st1" d="M23.1,7.5c-0.3,0-0.6,0-0.8,0c-0.1,0-0.1,0-0.1,0.1c-0.6,0.9-1.3,1.9-1.9,2.8c0,0,0,0,0,0
	c0.1-0.2,0.2-0.4,0.3-0.7c0.4-0.8,0.7-1.7,1.1-2.5c0-0.1,0-0.1,0-0.1c-0.2-0.2-0.4-0.5-0.6-0.7C21.5,6.8,22.2,7.2,23.1,7.5
	C23.1,7.5,23.1,7.5,23.1,7.5"/>
<path class="st1" d="M4,7.5c0.8-0.2,1.5-0.7,2.2-1.1c0,0,0,0,0,0C6.2,6.5,6.1,6.6,6,6.7C5.8,6.9,5.7,7,5.6,7.1c0,0,0,0.1,0,0.1
	c0.4,1,0.9,2.1,1.3,3.1c0,0,0,0,0,0.1c-0.1-0.1-0.1-0.2-0.2-0.3C6.1,9.3,5.6,8.4,5,7.6c0-0.1-0.1-0.1-0.1-0.1C4.6,7.5,4.3,7.5,4,7.5
	C4.1,7.5,4,7.5,4,7.5C4,7.5,4,7.5,4,7.5"/>
<path class="st1" d="M13.5,15.7c2.4,0,4.8,0,7.2,0c0.2,0,0.3,0,0.3,0.1c0,0.1,0,0.2,0,0.3c0,0.1-0.1,0.1-0.2,0.1c0,0,0,0-0.1,0
	c-4.8,0-9.6,0-14.4,0c0,0,0,0-0.1,0c-0.1,0-0.2,0-0.2-0.1c0-0.1,0-0.2,0-0.4c0-0.1,0.1-0.1,0.2-0.1c0,0,0.1,0,0.1,0H13.5z"/>
</svg>
